<svg id="Layer_1" xmlns="http://www.w3.org/2000/svg" version="1.1" viewBox="0 0 500 500">
  <!-- Generator: Adobe Illustrator 29.5.1, SVG Export Plug-In . SVG Version: 2.1.0 Build 141)  -->
  <circle cx="250" cy="250" r="238" fill="#000" opacity="0"/>
  <path d="M277.91,325.85c-15.24,15.47-39.94,15.47-55.17,0-15.24-15.47-15.24-40.56,0-56.04l107.59-109.27c15.24-15.47,39.94-15.47,55.17,0,15.24,15.47,15.24,40.56,0,56.04l-107.59,109.27ZM438.57,283.41c-15.24-15.47-39.94-15.47-55.17,0-15.24,15.47-15.24,40.56,0,56.04,15.24,15.47,39.94,15.47,55.17,0s15.24-40.56,0-56.04ZM224.19,230.18c15.24-15.47,15.24-40.56,0-56.04-15.24-15.47-39.94-15.47-55.17,0l-107.59,109.27c-15.24,15.47-15.24,40.56,0,56.04,15.24,15.47,39.94,15.47,55.17,0l107.59-109.27Z" fill="#fff"/>
</svg>